<svg width="58" height="38" viewBox="0 0 58 38" fill="none" xmlns="http://www.w3.org/2000/svg">
<path d="M49.4704 8.3125C46.786 5.67096 43.5968 3.57685 40.0862 2.15053C36.5755 0.724213 32.8127 -0.00618324 29.0139 0.00131973C29.0091 0.00131973 29.0048 0 28.9999 0C28.9959 0 28.9924 0.00105598 28.9887 0.00105598C28.9581 0.00105598 28.9277 0.000263744 28.8974 0.000263744C15.7529 0.044861 4.6314 8.8445 1.13959 20.8079C1.0022 20.9969 0.937838 21.2278 0.958076 21.4592C0.320762 23.8552 -0.0012228 26.3217 3.48953e-06 28.7982V34.8333C0.000927482 35.6729 0.340706 36.4778 0.944789 37.0715C1.54887 37.6652 2.36792 37.9991 3.22222 38H54.7777C55.632 37.9991 56.451 37.6652 57.0551 37.0715C57.6592 36.4778 57.999 35.6729 57.9999 34.8333V28.5C58.0106 24.7474 57.262 21.0302 55.7977 17.5646C54.3334 14.0989 52.1826 10.9539 49.4704 8.3125ZM55.8517 34.8333C55.8515 35.1132 55.7382 35.3815 55.5368 35.5794C55.3355 35.7773 55.0624 35.8886 54.7777 35.8889H24.5847L41.6214 14.0687C41.7091 13.9589 41.7739 13.8331 41.8118 13.6985C41.8497 13.5639 41.8601 13.4233 41.8424 13.2848C41.8246 13.1462 41.7791 13.0125 41.7084 12.8914C41.6377 12.7703 41.5432 12.6641 41.4305 12.5792C41.3177 12.4942 41.189 12.432 41.0516 12.3963C40.9143 12.3605 40.7711 12.3519 40.6303 12.371C40.4895 12.39 40.354 12.4363 40.2316 12.5072C40.1092 12.578 40.0023 12.6721 39.9171 12.7838L21.877 35.8889H3.22222C2.93744 35.8886 2.66442 35.7773 2.46305 35.5794C2.26168 35.3815 2.14843 35.1132 2.14815 34.8333V28.7979C2.1473 26.7482 2.38487 24.7051 2.85623 22.7084L10.0474 24.6021C10.1842 24.6398 10.3273 24.6504 10.4683 24.6334C10.6094 24.6164 10.7456 24.572 10.869 24.5029C10.9925 24.4337 11.1008 24.3412 11.1876 24.2307C11.2744 24.1201 11.338 23.9938 11.3748 23.8589C11.4116 23.724 11.4208 23.5833 11.4018 23.4449C11.3828 23.3065 11.3361 23.1731 11.2644 23.0526C11.1926 22.9321 11.0972 22.8268 10.9837 22.7427C10.8702 22.6587 10.7409 22.5976 10.6032 22.563L3.42522 20.6728C6.79163 10.251 16.4478 2.58585 27.9259 2.13433V9.5C27.9259 9.77995 28.039 10.0484 28.2405 10.2464C28.4419 10.4443 28.7151 10.5556 28.9999 10.5556C29.2848 10.5556 29.558 10.4443 29.7594 10.2464C29.9609 10.0484 30.074 9.77995 30.074 9.5V2.13354C35.6133 2.35421 40.9478 4.25209 45.3471 7.56735C49.7464 10.8826 52.9955 15.4532 54.6496 20.6533L47.3964 22.563C47.2591 22.598 47.1302 22.6593 47.0172 22.7435C46.9042 22.8276 46.8092 22.9329 46.7378 23.0533C46.6664 23.1737 46.62 23.3068 46.6012 23.445C46.5824 23.5831 46.5916 23.7235 46.6283 23.8581C46.6651 23.9927 46.7285 24.1188 46.8151 24.2292C46.9016 24.3396 47.0096 24.432 47.1327 24.5012C47.2558 24.5704 47.3916 24.6149 47.5323 24.6322C47.673 24.6495 47.8158 24.6393 47.9525 24.6021L55.2033 22.6926C55.6356 24.5992 55.8531 26.5467 55.8517 28.5V34.8333Z" fill="black"/>
</svg>
