<svg width="31" height="29" viewBox="0 0 31 29" fill="none" xmlns="http://www.w3.org/2000/svg">
<path d="M6.44421 29C6.2776 29 6.111 28.9181 5.9444 28.8362C5.6112 28.5904 5.5279 28.2627 5.6112 27.935L8.85993 18.1045L0.363248 11.9605C0.030045 11.7147 -0.0532559 11.387 0.0300449 11.0593C0.113346 10.7316 0.446549 10.4859 0.863053 10.4859H11.4423L14.6077 0.573447C14.691 0.245763 15.0242 0 15.4407 0C15.8572 0 16.1071 0.245763 16.2737 0.573447L19.5224 10.4859H30.1016C30.4348 10.4859 30.768 10.6497 30.9346 10.9774C31.1012 11.3051 30.9346 11.7147 30.6014 11.8785L22.1048 17.9407L25.3535 27.7712C25.4368 28.0989 25.3535 28.5085 25.0203 28.6723C24.6871 28.8362 24.3539 28.9181 24.0207 28.6723L15.4407 22.774L6.94401 28.8362C6.77741 28.9181 6.61081 29 6.44421 29ZM15.4407 20.8898C15.6073 20.8898 15.7739 20.9718 15.9405 21.0537L22.8545 26.0508L20.1888 18.0226C20.1055 17.6949 20.1888 17.2853 20.522 17.1215L27.436 12.1243H18.856C18.5228 12.1243 18.1896 11.8785 18.023 11.5508L15.4407 3.5226L12.7751 11.5508C12.6918 11.8785 12.3586 12.1243 11.9421 12.1243H3.36208L10.276 17.1215C10.6092 17.3672 10.6925 17.6949 10.6092 18.0226L8.02692 26.0508L14.9409 21.0537C15.1075 20.9718 15.2741 20.8898 15.4407 20.8898Z" fill="white"/>
</svg>
