<svg width="68" height="43" viewBox="0 0 68 43" fill="none" xmlns="http://www.w3.org/2000/svg">
<path d="M64.8897 40.8706H2.29797C0.98474 40.8706 0 40.8706 0 41.5325C0 42.2014 1.0943 42.1944 2.29797 42.1944H64.7803C66.0934 42.1944 67.0781 42.1944 67.0781 41.5325C67.0781 40.8706 66.2028 40.8706 64.8897 40.8706Z" fill="white"/>
<path d="M8.8709 37.9207H58.441C59.754 37.9207 60.739 36.8247 60.739 35.6193V34.5233C60.739 21.5907 51.766 10.8501 39.7291 8.11029V2.30158C39.7291 0.986286 38.6348 0 37.4311 0H29.9901C28.6769 0 27.6922 1.09602 27.6922 2.30158V8.00075C15.6553 10.7407 6.6823 21.5909 6.6823 34.4137V35.5098C6.46355 36.9344 7.55766 37.9207 8.8709 37.9207ZM38.1048 1.6953V7.34292C34.5859 7.34292 34.1484 7.34292 33.7107 7.34292C33.273 7.34292 32.7363 7.35618 29.289 7.35618L29.2786 1.6953H38.1048ZM33.6012 9.61135C45.5287 9.61135 58.2259 20.2859 58.2259 35.6018H9.54351C9.54351 19.0382 21.6736 9.61135 33.6012 9.61135Z" fill="white"/>
</svg>
