<svg width="56" height="35" viewBox="0 0 56 35" fill="none" xmlns="http://www.w3.org/2000/svg">
<path d="M54.0442 33.459H2.80312C1.72804 33.459 0.921875 33.459 0.921875 34.0008C0.921875 34.5484 1.81773 34.5427 2.80312 34.5427H53.9546C55.0296 34.5427 55.8357 34.5427 55.8357 34.0008C55.8357 33.459 55.1191 33.459 54.0442 33.459Z" fill="white"/>
<path d="M8.18377 31.044H48.7646C49.8395 31.044 50.6458 30.1467 50.6458 29.1599V28.2627C50.6458 17.6754 43.3001 8.88245 33.446 6.63953V1.8842C33.446 0.807428 32.5501 0 31.5647 0H25.4731C24.3981 0 23.5919 0.89726 23.5919 1.8842V6.54985C13.7378 8.79292 6.39207 17.6755 6.39207 28.173V29.0702C6.21299 30.2365 7.10869 31.044 8.18377 31.044ZM32.1163 1.38787V6.01131C29.2355 6.01131 28.8773 6.01131 28.519 6.01131C28.1607 6.01131 27.7213 6.02217 24.8992 6.02217L24.8906 1.38787H32.1163ZM28.4293 7.86838C38.1939 7.86838 48.5885 16.6072 48.5885 29.1456H8.73441C8.73441 15.5857 18.6648 7.86838 28.4293 7.86838Z" fill="white"/>
</svg>
