<svg width="74" height="38" viewBox="0 0 74 38" fill="none" xmlns="http://www.w3.org/2000/svg">
<path d="M31.1698 9.53053C31.6411 9.53053 32.0237 9.1482 32.0237 8.67713V6.0137C32.0237 5.54262 31.6411 5.16029 31.1698 5.16029C30.6986 5.16029 30.316 5.54262 30.316 6.0137V8.67713C30.316 9.14906 30.6984 9.53053 31.1698 9.53053Z" fill="black"/>
<path d="M42.1641 9.53053C42.6363 9.53053 43.018 9.1482 43.018 8.67713V6.0137C43.018 5.54262 42.6363 5.16029 42.1641 5.16029C41.6919 5.16029 41.3102 5.54262 41.3102 6.0137V8.67713C41.3102 9.14906 41.6919 9.53053 42.1641 9.53053Z" fill="black"/>
<path d="M36.9172 9.53053C37.3885 9.53053 37.771 9.1482 37.771 8.67713V6.0137C37.771 5.54262 37.3885 5.16029 36.9172 5.16029C36.4458 5.16029 36.0634 5.54262 36.0634 6.0137V8.67713C36.0634 9.14906 36.4458 9.53053 36.9172 9.53053Z" fill="black"/>
<path d="M40.3522 14.9827H33.4813V22.85H40.3522V14.9827ZM38.6446 21.1432H35.189V16.6895H38.6446V21.1432Z" fill="black"/>
<path d="M69.8357 19.3119V6.6598H54.1351V6.9405L54.0394 6.75872L48.5141 9.67647V3.61576L53.4221 0H20.9612L25.3194 3.58751V9.76349L19.6284 6.75872L19.5319 6.94136V6.6598H3.83207V19.3128H0V38H74V19.3119H69.8357ZM17.8242 8.36647V19.3127H15.4505V11.3626H8.57784V19.3127H5.53883V8.36647H17.8242ZM13.7419 13.0686V19.3119H10.2853V13.0686H13.7419ZM25.3184 36.2933H1.70762V21.0186H25.3184V36.2933ZM25.3184 19.3119H19.5308V8.63785L25.3184 11.6938V19.3119ZM38.6446 36.2933H35.189V26.2626H38.6446V36.2933ZM43.3919 36.2933H40.3513V24.556H33.4804V36.2933H30.4408V12.5276H43.3919V36.2933ZM46.8064 36.2933H45.0997V10.8209H28.7329V36.2935H27.0262V4.03737H46.8064V36.2933ZM47.3793 2.33056H26.4788L25.7206 1.70667H48.2272L47.3793 2.33056ZM55.8429 8.36647H68.128V19.3127H65.4204V11.3626H58.5487V19.3127H55.8429V8.36647ZM63.7127 13.0686V19.3119H60.2563V13.0686H63.7127ZM48.5141 11.6059L54.1351 8.63785V19.3119H48.5141V11.6059ZM72.2924 36.2933H48.5141V21.0186H72.2922L72.2924 36.2933Z" fill="black"/>
<path d="M8.87073 24.8683H4.16513V32.4429H8.87073V24.8683ZM7.16283 30.7361H5.87275V26.575H7.16283V30.7361Z" fill="black"/>
<path d="M15.8672 24.8683H11.1607V32.4429H15.8672V24.8683ZM14.1594 30.7361H12.8685V26.575H14.1594V30.7361Z" fill="black"/>
<path d="M22.8628 24.8683H18.1563V32.4429H22.8628V24.8683ZM21.155 30.7361H19.8641V26.575H21.155V30.7361Z" fill="black"/>
<path d="M55.8429 24.8683H51.1371V32.4429H55.8429V24.8683ZM54.1351 30.7361H52.845V26.575H54.1351V30.7361Z" fill="black"/>
<path d="M62.8391 24.8683H58.1335V32.4429H62.8391V24.8683ZM61.1315 30.7361H59.8414V26.575H61.1315V30.7361Z" fill="black"/>
<path d="M69.8357 24.8683H65.1293V32.4429H69.8357V24.8683ZM68.1281 30.7361H66.837V26.575H68.1281V30.7361Z" fill="black"/>
<path d="M51.0492 11.8201C50.5771 11.8201 50.1954 12.2024 50.1954 12.6735V16.8346C50.1954 17.3057 50.5771 17.688 51.0492 17.688C51.5214 17.688 51.9031 17.3057 51.9031 16.8346V12.6735C51.9031 12.2024 51.5214 11.8201 51.0492 11.8201Z" fill="black"/>
<path d="M22.0661 17.688C22.5374 17.688 22.92 17.3057 22.92 16.8346V12.6735C22.92 12.2024 22.5374 11.8201 22.0661 11.8201C21.5948 11.8201 21.2124 12.2024 21.2124 12.6735V16.8346C21.2124 17.3065 21.5948 17.688 22.0661 17.688Z" fill="black"/>
</svg>
