<?xml version="1.0" encoding="UTF-8" standalone="no"?>
<!DOCTYPE svg PUBLIC "-//W3C//DTD SVG 1.1//EN" "http://www.w3.org/Graphics/SVG/1.1/DTD/svg11.dtd">
<svg width="100%" height="100%" viewBox="0 0 647 647" version="1.1" xmlns="http://www.w3.org/2000/svg" xmlns:xlink="http://www.w3.org/1999/xlink" xml:space="preserve" xmlns:serif="http://www.serif.com/" style="fill-rule:evenodd;clip-rule:evenodd;stroke-linejoin:round;stroke-miterlimit:2;">
    <g transform="matrix(4.16667,0,0,4.16667,0,0)">
        <g>
            <g id="f_1_" transform="matrix(0.0620663,0,0,0.0620663,30.3158,48.8197)">
                <path d="M89.584,155.139L89.584,84.378L113.326,84.378L116.888,56.793L89.584,56.793L89.584,39.184C89.584,31.2 91.792,25.759 103.254,25.759L117.849,25.753L117.849,1.08C115.325,0.752 106.661,0 96.577,0C75.52,0 61.104,12.853 61.104,36.452L61.104,56.793L37.29,56.793L37.29,84.378L61.104,84.378L61.104,155.139L89.584,155.139Z" style="fill:white;fill-rule:nonzero;"/>
            </g>
            <g transform="matrix(0.0185547,0,0,0.0185547,43.0315,48.8644)">
                <path d="M373.406,0L138.594,0C62.172,0 0,62.172 0,138.594L0,373.41C0,449.828 62.172,512 138.594,512L373.41,512C449.828,512 512,449.828 512,373.41L512,138.594C512,62.172 449.828,0 373.406,0ZM481.984,373.41C481.984,433.277 433.277,481.984 373.406,481.984L138.594,481.984C78.723,481.984 30.016,433.277 30.016,373.41L30.016,138.594C30.016,78.723 78.723,30.016 138.594,30.016L373.41,30.016C433.277,30.016 481.984,78.723 481.984,138.594L481.984,373.41Z" style="fill:white;fill-rule:nonzero;"/>
            </g>
            <g transform="matrix(0.0185547,0,0,0.0185547,43.0315,48.8644)">
                <path d="M256,116.004C178.805,116.004 116.004,178.805 116.004,256C116.004,333.195 178.805,395.996 256,395.996C333.195,395.996 395.996,333.195 395.996,256C395.996,178.805 333.195,116.004 256,116.004ZM256,365.98C195.359,365.98 146.02,316.645 146.02,256C146.02,195.359 195.359,146.02 256,146.02C316.645,146.02 365.98,195.359 365.98,256C365.98,316.645 316.645,365.98 256,365.98Z" style="fill:white;fill-rule:nonzero;"/>
            </g>
            <g transform="matrix(0.0185547,0,0,0.0185547,43.0315,48.8644)">
                <path d="M399.344,66.285C376.531,66.285 357.977,84.844 357.977,107.652C357.977,130.465 376.531,149.023 399.344,149.023C422.156,149.023 440.715,130.465 440.715,107.652C440.715,84.84 422.156,66.285 399.344,66.285ZM399.344,119.004C393.086,119.004 387.992,113.91 387.992,107.652C387.992,101.391 393.086,96.301 399.344,96.301C405.605,96.301 410.699,101.391 410.699,107.652C410.699,113.91 405.605,119.004 399.344,119.004Z" style="fill:white;fill-rule:nonzero;"/>
            </g>
            <g transform="matrix(0.0234375,0,0,0.0234375,57.6537,47.4826)">
                <g>
                    <path d="M512,97.248C492.96,105.6 472.672,111.136 451.52,113.824C473.28,100.832 489.888,80.416 497.696,55.808C477.408,67.904 455.008,76.448 431.136,81.216C411.872,60.704 384.416,48 354.464,48C296.352,48 249.568,95.168 249.568,152.992C249.568,161.312 250.272,169.312 252,176.928C164.736,172.672 87.52,130.848 35.648,67.136C26.592,82.848 21.28,100.832 21.28,120.192C21.28,156.544 40,188.768 67.904,207.424C51.04,207.104 34.496,202.208 20.48,194.496L20.48,195.648C20.48,246.656 56.864,289.024 104.576,298.784C96.032,301.12 86.72,302.24 77.056,302.24C70.336,302.24 63.552,301.856 57.184,300.448C70.784,342.016 109.376,372.576 155.264,373.568C119.552,401.504 74.208,418.336 25.12,418.336C16.512,418.336 8.256,417.952 -0,416.896C46.496,446.88 101.6,464 161.024,464C354.176,464 459.776,304 459.776,165.312C459.776,160.672 459.616,156.192 459.392,151.744C480.224,136.96 497.728,118.496 512,97.248Z" style="fill:white;fill-rule:nonzero;"/>
                </g>
            </g>
            <g transform="matrix(0.0186275,0,0,0.0186275,75.0121,48.9022)">
                <g id="post-linkedin">
                    <path d="M459,0L51,0C22.95,0 0,22.95 0,51L0,459C0,487.05 22.95,510 51,510L459,510C487.05,510 510,487.05 510,459L510,51C510,22.95 487.05,0 459,0ZM153,433.5L76.5,433.5L76.5,204L153,204L153,433.5ZM114.75,160.65C89.25,160.65 68.85,140.25 68.85,114.75C68.85,89.25 89.25,68.85 114.75,68.85C140.25,68.85 160.65,89.25 160.65,114.75C160.65,140.25 140.25,160.65 114.75,160.65ZM433.5,433.5L357,433.5L357,298.35C357,277.951 339.15,260.1 318.75,260.1C298.35,260.1 280.5,277.951 280.5,298.35L280.5,433.5L204,433.5L204,204L280.5,204L280.5,234.6C293.25,214.2 321.3,198.9 344.25,198.9C392.7,198.9 433.5,239.7 433.5,288.15L433.5,433.5Z" style="fill:white;fill-rule:nonzero;"/>
                </g>
            </g>
        </g>
    </g>
</svg>
