<svg width="26" height="38" viewBox="0 0 26 38" fill="none" xmlns="http://www.w3.org/2000/svg">
<path d="M26 9.05179V2.28C25.9993 1.67552 25.7574 1.096 25.3273 0.668574C24.8972 0.241144 24.3141 0.000703992 23.7059 0H2.29412C1.6859 0.000703992 1.10279 0.241144 0.672714 0.668574C0.242637 1.096 0.000708352 1.67552 0 2.28V9.12C0.000841012 9.47381 0.0841312 9.82262 0.24334 10.1391C0.40255 10.4555 0.633351 10.731 0.917648 10.944L11.7256 19L0.917648 27.056C0.633351 27.269 0.40255 27.5445 0.24334 27.8609C0.0841312 28.1774 0.000841012 28.5262 0 28.88V35.72C0.000708352 36.3245 0.242637 36.904 0.672714 37.3314C1.10279 37.7589 1.6859 37.9993 2.29412 38H23.7059C24.3141 37.9993 24.8972 37.7589 25.3273 37.3314C25.7574 36.904 25.9993 36.3245 26 35.72V28.9482C25.9991 28.5959 25.9164 28.2485 25.7585 27.933C25.6005 27.6175 25.3715 27.3425 25.0892 27.1293L14.2681 19L25.0892 10.8707C25.3715 10.6574 25.6006 10.3824 25.7585 10.0669C25.9165 9.75142 25.9991 9.40418 26 9.05179ZM12.9981 18.0487L5.09677 12.1592H20.8379L12.9981 18.0487ZM24.4706 28.9484V35.72C24.4703 35.9215 24.3897 36.1147 24.2463 36.2571C24.103 36.3996 23.9086 36.4797 23.7059 36.48H2.29412C2.09138 36.4797 1.89702 36.3996 1.75367 36.2571C1.61031 36.1147 1.52966 35.9215 1.52941 35.72V28.88C1.52971 28.7621 1.55748 28.6458 1.61055 28.5403C1.66361 28.4348 1.74054 28.343 1.83529 28.272L12.2353 20.52V26.5992C12.2353 26.8008 12.3159 26.9941 12.4593 27.1366C12.6027 27.2792 12.7972 27.3592 13 27.3592C13.2028 27.3592 13.3973 27.2792 13.5407 27.1366C13.6841 26.9941 13.7647 26.8008 13.7647 26.5992V20.5272L24.167 28.3419C24.261 28.413 24.3374 28.5046 24.39 28.6097C24.4426 28.7149 24.4702 28.831 24.4706 28.9484ZM24.4706 9.05198C24.4703 9.16943 24.4427 9.28523 24.3901 9.39038C24.3374 9.49553 24.2611 9.5872 24.167 9.65827L22.8613 10.6394H3.05768L1.83529 9.728C1.74056 9.65698 1.66365 9.56514 1.61059 9.45966C1.55752 9.35418 1.52974 9.23793 1.52941 9.12V2.28C1.52966 2.07851 1.61031 1.88535 1.75367 1.74288C1.89702 1.6004 2.09138 1.52025 2.29412 1.52H23.7059C23.9086 1.52025 24.103 1.6004 24.2463 1.74288C24.3897 1.88535 24.4703 2.07851 24.4706 2.28V9.05198Z" fill="black"/>
</svg>
