<?xml version="1.0" encoding="UTF-8" standalone="no"?>
<!DOCTYPE svg PUBLIC "-//W3C//DTD SVG 1.1//EN" "http://www.w3.org/Graphics/SVG/1.1/DTD/svg11.dtd">
<svg width="100%" height="100%" viewBox="0 0 647 647" version="1.1" xmlns="http://www.w3.org/2000/svg" xmlns:xlink="http://www.w3.org/1999/xlink" xml:space="preserve" xmlns:serif="http://www.serif.com/" style="fill-rule:evenodd;clip-rule:evenodd;stroke-linejoin:round;stroke-miterlimit:2;">
    <g transform="matrix(4.16667,0,0,4.16667,0,0)">
        <g transform="matrix(0.0620663,0,0,0.0620663,56.363,47.4379)">
            <path id="f_1_" d="M89.584,155.139L89.584,84.378L113.326,84.378L116.888,56.793L89.584,56.793L89.584,39.184C89.584,31.2 91.792,25.759 103.254,25.759L117.849,25.753L117.849,1.08C115.325,0.752 106.661,0 96.577,0C75.52,0 61.104,12.853 61.104,36.452L61.104,56.793L37.29,56.793L37.29,84.378L61.104,84.378L61.104,155.139L89.584,155.139Z" style="fill:white;fill-rule:nonzero;"/>
        </g>
    </g>
</svg>
