<svg width="37" height="50" viewBox="0 0 37 50" fill="none" xmlns="http://www.w3.org/2000/svg">
<path d="M18.2527 38.2813C10.9107 38.2813 4.97465 32.3438 4.97465 25.0001C4.97465 17.6563 10.9107 11.7188 18.2527 11.7188C25.5947 11.7188 31.5307 17.6563 31.5307 25.0001C31.5307 32.3438 25.5947 38.2813 18.2527 38.2813ZM18.2527 13.2813C11.7699 13.2813 6.53673 18.5156 6.53673 25.0001C6.53673 31.4844 11.7698 36.7188 18.2527 36.7188C24.7355 36.7188 29.9686 31.4845 29.9686 25.0001C29.9685 18.5156 24.7355 13.2813 18.2527 13.2813Z" fill="white"/>
<path d="M18.6432 38.2813C13.7225 38.2813 9.66098 32.3438 9.66098 25.0001C9.66098 17.6563 13.7225 11.7188 18.6432 11.7188C23.5639 11.7188 27.6254 17.6563 27.6254 25.0001C27.6254 32.3438 23.5639 38.2813 18.6432 38.2813ZM18.6432 13.2813C14.5817 13.2813 11.2231 18.5156 11.2231 25.0001C11.2231 31.4844 14.5817 36.7188 18.6432 36.7188C22.7047 36.7188 26.0633 31.4845 26.0633 25.0001C26.0633 18.5156 22.7047 13.2813 18.6432 13.2813Z" fill="white"/>
<path d="M18.6432 19.8437C18.487 19.8437 18.4089 19.8437 18.2527 19.8437C14.8161 19.9219 11.4574 18.9063 8.56755 16.9531L9.42669 15.625C12.0041 17.4219 15.0503 18.2812 18.1746 18.2031C21.3769 18.2812 24.423 17.4219 27.0006 15.625L27.8597 16.9531C25.2041 18.8282 21.9237 19.8437 18.6432 19.8437Z" fill="white"/>
<path d="M27.0787 34.375C24.5012 32.5781 21.4549 31.7187 18.3307 31.7969C15.1284 31.7187 12.0823 32.5781 9.5047 34.375L8.64557 33.0469C11.5355 31.0938 14.8941 30.0781 18.3307 30.1563C21.7674 30.0781 25.1259 31.0938 28.0159 33.0469L27.0787 34.375Z" fill="white"/>
<path d="M19.0338 12.5001H17.4716V37.5001H19.0338V12.5001Z" fill="white"/>
<path d="M30.7498 24.2188H5.75569V25.7813H30.7498V24.2188Z" fill="white"/>
<path d="M30.7497 50H1.06936C0.600703 50 0.288236 49.6875 0.288236 49.2188V25C0.288236 24.5313 0.600703 24.2188 1.06936 24.2188C1.53794 24.2188 1.8504 24.5313 1.8504 25V48.4375H30.7497C32.9366 48.4375 34.655 46.7188 34.655 44.5312V11.7188C34.655 9.53138 32.9366 7.81261 30.7497 7.81261H1.8504V21.0939C1.8504 21.5627 1.53794 21.8751 1.06936 21.8751C0.600703 21.8751 0.288236 21.5626 0.288236 21.0939V7.0313C0.288236 6.56253 0.600703 6.24998 1.06936 6.24998H30.7497C33.7957 6.24998 36.217 8.67186 36.217 11.7187V44.5312C36.2171 47.5782 33.7958 50 30.7497 50Z" fill="white"/>
<path d="M1.06936 7.81253C0.756895 7.81253 0.366416 7.57819 0.288236 7.18753C0.210141 6.79696 0.444428 6.4063 0.913086 6.24999L26.2975 0C26.5319 0 26.7662 0 26.9224 0C28.0158 0.0781144 28.9531 0.546885 29.7342 1.32811C30.4371 2.10934 30.8276 3.125 30.7496 4.21876V7.0313C30.7496 7.50007 30.4371 7.81253 29.9685 7.81253C29.4999 7.81253 29.1874 7.50007 29.1874 7.0313V4.21885C29.1874 3.51574 29.0312 2.89074 28.5626 2.42197C28.094 1.9532 27.5472 1.64074 26.8442 1.64074C26.688 1.64074 26.6099 1.64074 26.4537 1.64074L1.22547 7.81253C1.22547 7.81253 1.14746 7.81253 1.06936 7.81253Z" fill="white"/>
<path d="M25.2822 42.9688H19.0338C18.5651 42.9688 18.2527 42.6563 18.2527 42.1876C18.2527 41.7188 18.5651 41.4063 19.0338 41.4063H25.2822C25.7509 41.4063 26.0633 41.7188 26.0633 42.1876C26.0633 42.6563 25.7509 42.9688 25.2822 42.9688Z" fill="white"/>
<path d="M15.9096 42.9688H11.2231C10.7545 42.9688 10.442 42.6563 10.442 42.1876C10.442 41.7188 10.7545 41.4063 11.2231 41.4063H15.9096C16.3781 41.4063 16.6906 41.7188 16.6906 42.1876C16.6905 42.6563 16.3781 42.9688 15.9096 42.9688Z" fill="white"/>
<path d="M19.0338 45.3125H12.7853C12.3167 45.3125 12.0042 45 12.0042 44.5313C12.0042 44.0625 12.3167 43.75 12.7853 43.75H19.0338C19.5024 43.75 19.8148 44.0625 19.8148 44.5313C19.8148 45 19.5024 45.3125 19.0338 45.3125Z" fill="white"/>
<path d="M22.9391 45.3125H21.3769C20.9083 45.3125 20.5958 45 20.5958 44.5313C20.5958 44.0625 20.9083 43.75 21.3769 43.75H22.9391C23.4078 43.75 23.7201 44.0625 23.7201 44.5313C23.7201 45 23.4078 45.3125 22.9391 45.3125Z" fill="white"/>
</svg>
