<svg width="97" height="46" viewBox="0 0 97 46" fill="none" xmlns="http://www.w3.org/2000/svg">
<path d="M96.009 13.7571H85.5301V6.01853C85.5301 2.72267 82.8394 0 79.5826 0H53.6688C51.4032 0 49.4207 1.43307 48.4295 3.29585C47.4382 1.2896 45.4557 0 43.1901 0H17.2761C14.0193 0 11.3286 2.72267 11.3286 6.01853V13.7571H0.99125C0.424855 13.7571 0 14.187 0 14.7602V38.1184C0 38.6919 0.424855 39.1216 0.99125 39.1216H10.1956V44.9966C10.1956 45.5703 10.6204 46 11.1868 46H13.0278C13.5942 46 14.019 45.5703 14.019 44.9966V39.1216H16.4262V41.701C16.4262 42.131 16.7092 42.4177 17.1343 42.4177H18.2674C18.692 42.4177 18.9753 42.1314 18.9753 41.701V39.1216H77.6001V41.701C77.6001 42.131 77.8832 42.4177 78.3085 42.4177H79.4413C79.8662 42.4177 80.1495 42.1314 80.1495 41.701V39.1216H82.9814V44.9966C82.9814 45.5703 83.4063 46 83.9727 46H85.8137C86.38 46 86.8049 45.5703 86.8049 44.9966V39.1216H96.009C96.5756 39.1216 97 38.6916 97 38.1184V14.7602C96.8585 14.187 96.4336 13.7571 96.009 13.7571ZM49.7038 6.01853C49.7038 3.7258 51.5448 2.00626 53.6688 2.00626H79.5828C81.8484 2.00626 83.5478 3.86928 83.5478 6.01853V17.3394C83.5478 19.6322 81.7071 21.3519 79.5828 21.3519H53.6688C51.4032 21.3519 49.7038 19.4889 49.7038 17.3394V6.01853ZM48.4292 20.0623C48.7123 20.6355 48.9959 21.0655 49.4205 21.4954H47.5798C47.8628 20.9222 48.1462 20.4923 48.4292 20.0623ZM13.3111 6.01853C13.3111 3.7258 15.1518 2.00626 17.2761 2.00626H43.1899C45.4555 2.00626 47.1549 3.86928 47.1549 6.01853V17.3394C47.1549 19.6322 45.3142 21.3519 43.1899 21.3519H17.2761C15.0103 21.3519 13.3111 19.4889 13.3111 17.3394V6.01853ZM13.3111 23.3584H83.8314C84.3978 23.3584 84.8226 23.7884 84.8226 24.3616V28.0879C84.8226 28.661 84.3978 29.091 83.8314 29.091H13.3111C12.7445 29.091 12.3199 28.661 12.3199 28.0879V24.3616C12.1783 23.7884 12.7445 23.3584 13.3111 23.3584ZM95.018 37.1153H1.84096V15.6199H11.3286V17.3394C11.3286 18.9157 11.895 20.3488 12.8863 21.3519C11.3286 21.4952 10.1956 22.785 10.1956 24.3613V28.0876C10.1956 29.6639 11.4699 31.097 13.1693 31.097H83.5474C85.105 31.097 86.5211 29.8072 86.5211 28.0876V24.3613C86.5211 22.785 85.3881 21.4952 83.8304 21.3519C84.8217 20.3488 85.3881 18.9157 85.3881 17.3394V15.6199H94.8757V37.1153H95.018Z" fill="white"/>
</svg>
