<svg width="79" height="57" viewBox="0 0 79 57" fill="none" xmlns="http://www.w3.org/2000/svg">
<path d="M75.2475 24.991H71.7661L69.4992 17.8917C68.3657 14.3012 64.9654 11.8531 61.2412 11.8531H41.406C38.7344 11.8531 36.3056 13.0771 34.7674 15.0356H35.5769C37.1153 15.0356 38.5724 15.7699 39.3822 17.0756C40.2727 18.2996 40.4343 19.9317 39.8678 21.4006L38.4913 24.991C37.8436 26.7863 36.0626 28.0103 34.1193 28.0103H24.6471V29.3975C24.6471 30.9481 25.8614 32.1721 27.3997 32.1721H28.3713C27.8045 34.7018 27.4807 37.313 27.4807 39.9244V53.2255C27.4807 54.776 28.6951 56 30.2333 56H34.8481C36.3055 56 37.6008 54.7756 37.6008 53.2255V48.9822H65.1273V53.2255C65.1273 54.776 66.3419 56 67.8801 56H72.4138C73.9521 56 75.1663 54.7756 75.1663 53.2255V39.8427C75.1663 37.2314 74.8423 34.6201 74.2755 32.0905H75.2474C76.7858 32.0905 78 30.8665 78 29.316V27.7656C78.0003 26.215 76.7859 24.991 75.2475 24.991ZM41.4871 41.3115H35.9818C35.0912 41.3115 34.2816 40.5774 34.2816 39.598V36.9867C34.2816 35.9258 35.1723 35.1099 36.2247 35.273L41.4062 36.1706C42.054 36.2522 42.6207 36.8234 42.7825 37.4762L43.1874 39.2714C43.3491 40.3323 42.5395 41.3115 41.4871 41.3115ZM68.4469 39.598C68.4469 40.4956 67.7184 41.3115 66.7469 41.3115H61.2416C60.1892 41.3115 59.3798 40.3323 59.6227 39.2714L60.0275 37.4762C60.1894 36.8234 60.6752 36.2522 61.4038 36.1706L66.5853 35.273C67.6378 35.1099 68.5284 35.9258 68.5284 36.9867V39.598H68.4469Z" stroke="white" stroke-width="2" stroke-miterlimit="10"/>
<path d="M35.3341 23.767L36.7104 20.1766C37.0343 19.3605 36.4676 18.5445 35.5769 18.5445H18.8181L15.1749 27.6023L14.4462 21.2373H14.932C15.2558 21.2373 15.4987 20.9925 15.4987 20.6661V18.9524C15.4987 18.626 15.2558 18.3812 14.932 18.3812H12.1794C11.8555 18.3812 11.6127 18.626 11.6127 18.9524V20.6661C11.6127 20.9925 11.8555 21.2373 12.1794 21.2373H12.6651L11.8555 27.6023L8.29325 18.6262C5.05485 19.3605 2.46425 22.1351 2.05936 25.5624L1.00683 35.3547C0.925904 36.334 1.57356 37.2315 2.46425 37.3948C3.51665 37.6396 4.89301 37.8029 6.35029 37.966L7.24085 53.4706C7.32191 54.7759 8.37431 55.7554 9.66961 55.7554H17.118C18.4133 55.7554 19.466 54.7759 19.5468 53.4706L20.8421 26.7865C20.8421 25.481 21.9755 24.4201 23.2708 24.4201H34.0387C34.6864 24.5014 35.0912 24.1751 35.3341 23.767Z" stroke="white" stroke-width="2" stroke-miterlimit="10"/>
<path d="M13.5557 16.8308C17.8928 16.8308 21.4088 13.287 21.4088 8.9154C21.4088 4.54385 17.8928 1 13.5557 1C9.21848 1 5.70251 4.54385 5.70251 8.9154C5.70251 13.287 9.21848 16.8308 13.5557 16.8308Z" stroke="white" stroke-width="2" stroke-miterlimit="10"/>
</svg>
