<svg width="83" height="39" viewBox="0 0 83 39" fill="none" xmlns="http://www.w3.org/2000/svg">
<path d="M82.152 11.6636H73.1855V5.10267C73.1855 2.30835 70.8832 0 68.0965 0H45.9228C43.9842 0 42.2878 1.215 41.4396 2.79431C40.5915 1.09335 38.8951 0 36.9565 0H14.7826C11.9959 0 9.69355 2.30835 9.69355 5.10267V11.6636H0.848183C0.363536 11.6636 0 12.0281 0 12.5141V32.3178C0 32.804 0.363536 33.1683 0.848183 33.1683H8.72405V38.1493C8.72405 38.6357 9.08759 39 9.57223 39H11.1475C11.6321 39 11.9957 38.6357 11.9957 38.1493V33.1683H14.0554V35.3552C14.0554 35.7197 14.2976 35.9628 14.6613 35.9628H15.6308C15.9942 35.9628 16.2366 35.7201 16.2366 35.3552V33.1683H66.4001V35.3552C66.4001 35.7197 66.6423 35.9628 67.0062 35.9628H67.9755C68.3391 35.9628 68.5815 35.7201 68.5815 35.3552V33.1683H71.0047V38.1493C71.0047 38.6357 71.3683 39 71.8529 39H73.4282C73.9128 39 74.2764 38.6357 74.2764 38.1493V33.1683H82.152C82.6369 33.1683 83 32.8038 83 32.3178V12.5141C82.8789 12.0281 82.5154 11.6636 82.152 11.6636ZM42.5301 5.10267C42.5301 3.15883 44.1053 1.70096 45.9228 1.70096H68.0967C70.0352 1.70096 71.4894 3.28047 71.4894 5.10267V14.7008C71.4894 16.6447 69.9143 18.1027 68.0967 18.1027H45.9228C43.9842 18.1027 42.5301 16.5232 42.5301 14.7008V5.10267ZM41.4394 17.0094C41.6817 17.4953 41.9243 17.8599 42.2876 18.2244H40.7126C40.9548 17.7384 41.1972 17.3739 41.4394 17.0094ZM11.3899 5.10267C11.3899 3.15883 12.965 1.70096 14.7826 1.70096H36.9563C38.8949 1.70096 40.349 3.28047 40.349 5.10267V14.7008C40.349 16.6447 38.774 18.1027 36.9563 18.1027H14.7826C12.8439 18.1027 11.3899 16.5232 11.3899 14.7008V5.10267ZM11.3899 19.8039H71.732C72.2167 19.8039 72.5802 20.1684 72.5802 20.6544V23.8136C72.5802 24.2996 72.2167 24.6641 71.732 24.6641H11.3899C10.9051 24.6641 10.5417 24.2996 10.5417 23.8136V20.6544C10.4206 20.1684 10.9051 19.8039 11.3899 19.8039ZM81.304 31.4673H1.57526V13.2429H9.69355V14.7008C9.69355 16.0373 10.1782 17.2523 11.0264 18.1027C9.69355 18.2242 8.72405 19.3177 8.72405 20.6542V23.8134C8.72405 25.1499 9.81446 26.3649 11.2686 26.3649H71.489C72.8218 26.3649 74.0335 25.2713 74.0335 23.8134V20.6542C74.0335 19.3177 73.064 18.2242 71.7312 18.1027C72.5794 17.2523 73.064 16.0373 73.064 14.7008V13.2429H81.1823V31.4673H81.304Z" fill="white"/>
</svg>
