<?xml version="1.0" encoding="UTF-8" standalone="no"?>
<!DOCTYPE svg PUBLIC "-//W3C//DTD SVG 1.1//EN" "http://www.w3.org/Graphics/SVG/1.1/DTD/svg11.dtd">
<svg width="100%" height="100%" viewBox="0 0 150 20" version="1.1" xmlns="http://www.w3.org/2000/svg" xmlns:xlink="http://www.w3.org/1999/xlink" xml:space="preserve" xmlns:serif="http://www.serif.com/" style="fill-rule:evenodd;clip-rule:evenodd;stroke-miterlimit:10;">
    <g transform="matrix(1,0,0,1,19.936,0)">
        <g transform="matrix(1,0,0,1,16.7474,-17.2832)">
            <text x="4.795px" y="31.83px" style="font-family:'Caudex', serif;font-size:16px;fill:white;">E<tspan x="17.768px 32.523px 45.497px 61.54px 74.545px 88.417px " y="31.83px 31.83px 31.83px 31.83px 31.83px 31.83px ">VENTYR</tspan></text>
        </g>
        <g transform="matrix(0.0460513,0,0,0.0460513,0.731703,10.0337)">
            <g transform="matrix(1,0,0,1,-139.5,-214.5)">
                <clipPath id="_clip1">
                    <rect x="0" y="0" width="279" height="429"/>
                </clipPath>
                <g clip-path="url(#_clip1)">
                    <path d="M98.936,240.234C102.526,242.994 105.696,245.564 109.046,247.894C110.155,248.622 111.475,248.957 112.796,248.844C116.566,248.454 120.296,247.684 124.066,247.184C128.625,246.493 132.943,244.686 136.636,241.924C138.336,240.724 140.036,239.924 141.936,241.484C147.156,245.874 153.476,247.164 159.986,247.964C160.48,248.013 160.968,248.103 161.446,248.234C166.196,249.734 170.316,249.044 173.926,245.234C175.696,243.394 177.986,242.054 180.406,240.234C181.216,246.074 181.996,251.454 182.716,256.834C183.596,263.461 184.46,270.094 185.306,276.734C186.486,285.824 187.606,294.924 188.826,304.004C190.146,313.834 191.576,323.634 192.896,333.464C194.056,342.134 195.086,350.834 196.226,359.464C197.016,365.464 197.936,371.404 198.736,377.384C199.476,382.944 200.176,388.514 200.736,394.104C200.712,394.53 200.585,394.944 200.368,395.311C200.15,395.679 199.848,395.988 199.486,396.214C183.686,404.214 167.786,412.024 152.046,420.144C148.156,422.144 144.706,425.064 141.146,427.694C140.016,428.534 139.276,428.634 138.146,427.754C125.666,417.934 110.886,412.254 96.946,405.064C91.126,402.064 85.236,399.184 79.446,396.124C79.105,395.835 78.837,395.47 78.664,395.059C78.49,394.647 78.415,394.2 78.446,393.754C79.196,387.364 80.096,380.984 80.926,374.594C82.116,365.344 83.266,356.084 84.496,346.834C85.786,337.094 87.196,327.364 88.496,317.614C89.686,308.694 90.736,299.754 91.926,290.834C93.216,281.174 94.616,271.534 95.926,261.834C96.826,255.214 97.676,248.574 98.556,241.944C98.734,241.387 98.861,240.815 98.936,240.234Z" style="fill:white;fill-rule:nonzero;stroke:white;stroke-width:1px;"/>
                    <path d="M230.866,427.063C229.246,418.773 227.676,411.063 226.246,403.403C224.576,394.473 223.076,385.523 221.436,376.603C220.176,369.783 218.796,362.993 217.516,356.183C216.326,349.863 215.186,343.533 214.026,337.183L214.026,336.683C212.626,329.683 211.156,322.743 209.856,315.753C208.196,306.833 206.706,297.873 205.066,288.953C203.906,282.623 202.616,276.323 201.416,270.003C199.416,259.543 197.456,249.083 195.536,238.623C194.006,230.433 192.406,222.263 190.986,214.053C190.901,213.092 190.508,212.185 189.867,211.464C189.226,210.744 188.37,210.249 187.426,210.053C180.566,208.053 173.746,205.843 166.936,203.653C158.416,200.903 149.936,197.773 141.346,195.483C138.816,194.813 135.606,196.203 132.836,197.063C119.106,201.353 105.416,205.793 91.696,210.143C90.864,210.31 90.106,210.737 89.533,211.362C88.959,211.988 88.6,212.779 88.506,213.623C86.746,223.773 84.846,233.913 82.946,244.043C81.666,250.853 80.256,257.643 78.946,264.453C77.246,273.533 75.656,282.633 73.946,291.713C72.646,298.713 71.206,305.633 69.946,312.603C67.786,324.203 65.716,335.813 63.546,347.403C62.266,354.293 60.826,361.163 59.546,368.053C57.866,376.963 56.286,385.893 54.626,394.813C53.336,401.703 51.996,408.593 50.626,415.483C49.916,419.193 49.226,422.903 48.416,427.193C46.886,425.563 45.526,424.313 44.416,422.893C38.542,415.493 32.736,408.056 26.996,400.583C26.501,399.857 26.308,398.968 26.456,398.103C27.716,392.303 29.156,386.543 30.456,380.743C32.146,373.013 33.686,365.253 35.356,357.513C36.596,351.793 37.976,346.103 39.226,340.383C41.426,330.383 43.556,320.253 45.766,310.193C47.036,304.393 48.426,298.623 49.706,292.823C51.416,285.013 53.026,277.183 54.706,269.383C55.996,263.503 57.406,257.653 58.706,251.773C60.886,241.773 62.986,231.773 65.156,221.773C66.586,215.173 67.966,208.553 69.666,202.023C70.026,200.643 71.586,199.483 72.766,198.403C85.866,186.503 98.976,174.62 112.096,162.753C112.566,162.323 113.096,161.963 113.756,161.463C119.816,166.983 125.626,172.643 131.836,177.813C135.836,181.123 136.316,185.813 138.026,190.043C138.506,191.223 138.826,192.463 139.226,193.673L139.916,193.673C140.786,191.627 141.508,189.522 142.076,187.373C143.076,182.373 146.076,178.823 149.846,175.603C154.666,171.543 159.206,167.153 163.846,162.833C165.056,161.693 165.846,161.463 167.276,162.723C180.809,175.103 194.382,187.436 207.996,199.723C210.366,201.863 210.276,204.913 210.996,207.603C212.476,213.433 213.536,219.363 214.806,225.233L220.806,252.523C223.606,265.403 226.346,278.303 229.186,291.183C230.986,299.313 232.936,307.403 234.786,315.523C235.246,317.523 234.786,319.953 236.876,320.903C236.628,322.204 236.544,323.531 236.626,324.853C239.256,337.013 241.996,349.153 244.696,361.293L252.696,397.293C252.885,398.04 252.883,398.822 252.691,399.568C252.498,400.314 252.122,401 251.596,401.563C245.416,409.213 239.406,417.003 233.306,424.713C232.544,425.548 231.729,426.333 230.866,427.063Z" style="fill:white;fill-rule:nonzero;stroke:white;stroke-width:1px;"/>
                    <path d="M1.766,149.384C1.636,147.844 1.496,146.984 1.496,146.124C1.496,132.064 1.356,117.994 1.626,103.934C1.626,101.634 3.176,99.184 4.486,97.104C13.666,82.544 22.976,68.104 32.236,53.564C32.436,53.3 32.601,53.011 32.726,52.704C34.366,48.324 38.346,47.394 42.186,46.244C45.576,45.244 48.986,44.244 52.336,43.184C52.936,42.984 53.336,42.104 53.796,41.544C53.096,41.094 52.356,40.194 51.726,40.264C47.806,40.744 43.916,41.444 39.596,42.134C41.366,39.324 43.056,36.624 44.746,33.924C49.153,26.924 53.556,19.924 57.956,12.924C58.378,12.192 58.966,11.569 59.673,11.107C60.38,10.645 61.186,10.356 62.026,10.264C68.376,9.264 74.626,7.664 81.026,6.664C90.236,5.214 99.466,3.664 108.736,2.884C120.006,1.884 131.326,1.124 142.636,1.004C156.038,0.926 169.422,2.011 182.636,4.244C194.636,6.244 206.526,8.364 218.446,10.514C219.38,10.73 220.202,11.282 220.756,12.064C226.936,21.804 233.11,31.567 239.276,41.354C239.366,41.642 239.406,41.943 239.396,42.244C234.396,40.964 229.506,39.714 224.606,38.444C219.276,37.064 213.996,35.444 208.606,34.334C200.846,32.744 193.036,31.334 185.206,30.194C164.696,27.194 144.086,25.664 123.386,27.264C110.96,28.264 98.566,29.641 86.206,31.394C78.206,32.514 70.376,34.574 62.486,36.314C61.318,36.702 60.227,37.294 59.266,38.064C57.906,38.984 56.736,40.204 54.896,38.854C54.426,38.504 53.486,38.804 52.656,38.804C53.536,40.014 54.306,41.084 55.346,42.504L72.256,38.504L1.766,149.384Z" style="fill:white;fill-rule:nonzero;stroke:white;stroke-width:1px;"/>
                    <path d="M41.806,130.924C42.606,132.774 43.376,134.354 43.966,135.994C48.536,148.584 53.046,161.194 57.606,173.784C58.946,177.484 60.456,181.114 61.826,184.784C63.346,188.894 61.116,192.554 60.146,196.294C57.986,204.654 55.486,212.924 53.096,221.224C51.476,226.844 49.786,232.434 48.176,238.054C44.336,251.504 40.546,264.974 36.696,278.424C35.066,284.124 33.316,289.784 31.696,295.424C28.856,305.424 26.096,315.424 23.256,325.364C21.726,330.744 20.016,336.074 18.566,341.474C16.956,347.474 15.806,353.474 13.976,359.374C12.976,362.634 10.976,365.584 9.416,368.674L8.416,368.484C6.956,363.724 5.499,358.964 4.046,354.204C3.635,352.358 3.083,350.546 2.396,348.784C0.846,345.574 0.976,342.224 1.026,338.834C1.326,320.964 1.496,303.084 2.026,285.224C2.106,282.464 3.456,279.694 4.466,277.034C8.666,265.964 12.996,254.954 17.226,243.904C22.719,229.564 28.183,215.204 33.616,200.824C36.076,194.374 38.616,187.954 40.886,181.434C41.256,179.751 41.256,178.007 40.886,176.324C39.596,165.994 38.346,155.654 36.806,145.324C36.146,140.874 38.706,137.664 40.226,134.014C40.616,133.114 41.146,132.214 41.806,130.924Z" style="fill:white;fill-rule:nonzero;stroke:white;stroke-width:1px;"/>
                    <path d="M270.606,368.665C266.726,364.875 266.136,360.075 264.786,355.665C262.856,349.375 261.156,343.015 259.356,336.665C256.656,327.085 253.946,317.505 251.226,307.925C249.576,302.155 247.846,296.405 246.226,290.635C242.906,279.005 239.626,267.355 236.286,255.735C233.936,247.585 231.466,239.465 229.126,231.315C226.306,221.515 223.576,211.685 220.786,201.865C219.616,197.755 217.906,193.725 217.336,189.525C216.986,186.965 218.046,184.075 218.946,181.525C223.246,169.285 227.716,157.095 232.126,144.885C233.646,140.725 235.169,136.558 236.696,132.385C236.939,131.915 237.227,131.469 237.556,131.055C239.086,134.145 240.956,136.925 241.836,139.985C242.457,142.606 242.555,145.325 242.126,147.985C240.906,158.315 239.346,168.615 238.126,178.985C237.926,180.795 238.856,182.815 239.546,184.635C243.746,195.695 248.076,206.705 252.276,217.755C257.016,230.195 261.656,242.665 266.356,255.115C269.836,264.335 273.356,273.545 276.826,282.775C277.166,283.694 277.346,284.665 277.356,285.645C277.666,304.585 278.006,323.535 278.156,342.485C277.995,344.934 277.477,347.346 276.616,349.645C274.726,355.925 272.676,362.135 270.606,368.665Z" style="fill:white;fill-rule:nonzero;stroke:white;stroke-width:1px;"/>
                    <path d="M207.896,38.613C213.316,39.953 218.766,41.223 224.156,42.673C230.036,44.253 235.896,45.903 241.676,47.763C243.108,48.296 244.327,49.283 245.146,50.573C254.046,64.363 262.766,78.233 271.556,92.063C273.176,94.623 275.006,97.063 276.416,99.733C277.274,101.375 277.766,103.183 277.856,105.033C278.136,112.193 278.236,119.353 278.296,126.513C278.366,133.873 278.296,141.243 278.296,148.613L277.026,148.923L207.456,39.063L207.896,38.613Z" style="fill:white;fill-rule:nonzero;stroke:white;stroke-width:1px;"/>
                    <path d="M221.676,96.533C224.306,101.743 226.866,106.663 229.216,111.683C229.496,112.283 228.846,113.683 228.216,114.293C218.106,125.223 208.026,136.143 197.716,146.923C196.016,148.713 195.966,150.373 196.466,152.503C197.896,158.583 199.216,164.683 200.576,170.773L199.856,171.403C198.396,169.693 197.016,167.883 195.446,166.273C185.766,156.373 176.156,146.393 166.256,136.723C163.256,133.803 163.056,130.143 162.096,126.723C160.436,120.783 159.176,114.723 157.786,108.723C157.506,107.553 157.376,106.353 157.096,104.723C161.006,106.423 164.506,107.943 167.996,109.483C174.906,112.483 181.796,115.583 188.736,118.483C189.111,118.553 189.496,118.542 189.866,118.453C190.237,118.363 190.584,118.196 190.886,117.963C200.706,111.13 210.502,104.267 220.276,97.373C220.723,97.062 221.191,96.781 221.676,96.533Z" style="fill:white;fill-rule:nonzero;stroke:white;stroke-width:1px;"/>
                    <path d="M164.486,157.323C161.649,155.412 158.912,153.356 156.286,151.163C153.436,148.553 150.506,147.163 146.866,149.043C141.156,152.043 135.666,150.423 130.206,148.453C129.366,148.115 128.445,148.029 127.557,148.207C126.669,148.384 125.851,148.818 125.206,149.453C121.746,152.193 118.206,154.793 114.206,157.833C114.356,156.603 114.386,155.833 114.546,155.143C117.376,142.513 120.256,129.903 123.066,117.263C124.656,110.113 126.126,102.933 127.696,95.773C127.884,95.144 128.228,94.573 128.696,94.113C131.906,90.723 135.106,87.313 138.436,84.043C138.802,83.842 139.213,83.736 139.631,83.736C140.049,83.736 140.46,83.842 140.826,84.043C144.332,87.23 147.607,90.662 150.626,94.313C152.066,96.193 152.336,99.043 152.896,101.503C154.276,107.503 155.526,113.583 156.826,119.623C158.556,127.683 160.276,135.743 162.046,143.783C162.786,147.163 163.646,150.523 164.426,153.893C164.666,154.893 164.826,155.963 165.026,157.003L164.486,157.323Z" style="fill:white;fill-rule:nonzero;"/>
                    <path d="M251.946,117.453C253.099,119.133 254.253,120.8 255.406,122.453C258.216,126.553 261.156,130.573 263.816,134.773C266.226,138.553 268.296,142.563 270.606,146.403C272.716,149.923 275.006,153.323 277.116,156.843C277.604,157.683 277.869,158.633 277.886,159.603C277.933,183.443 277.933,207.276 277.886,231.103C277.854,231.379 277.79,231.651 277.696,231.913C277.346,231.773 276.896,231.723 276.806,231.523C272.736,222.463 268.716,213.383 264.636,204.323C260.936,196.083 257.189,187.856 253.396,179.643C252.042,176.934 251.32,173.952 251.286,170.923C251.426,153.793 251.356,136.663 251.356,119.533L251.356,117.663L251.946,117.453Z" style="fill:white;fill-rule:nonzero;stroke:white;stroke-width:1px;"/>
                    <path d="M27.796,117.293L27.796,119.793C27.796,135.793 27.586,151.903 27.916,167.943C28.026,173.543 26.496,178.363 24.206,183.273C19.286,193.833 14.646,204.523 9.846,215.153C7.326,220.723 4.726,226.273 1.706,231.813C1.626,230.963 1.496,230.113 1.496,229.263C1.496,206.183 1.416,183.103 1.606,160.023C1.606,157.863 2.976,155.543 4.196,153.593C11.566,141.763 19.046,130.063 26.546,118.273C26.927,117.902 27.346,117.574 27.796,117.293Z" style="fill:white;fill-rule:nonzero;stroke:white;stroke-width:1px;"/>
                    <path d="M122.606,104.674C120.896,111.784 119.326,118.324 117.766,124.874C117.298,126.454 116.924,128.06 116.646,129.684C116.216,133.264 114.146,135.684 111.706,138.184C100.986,148.934 90.376,159.784 79.216,170.484C79.556,168.484 79.816,166.484 80.216,164.484C82.629,153.204 85.063,141.931 87.516,130.664C88.256,127.284 88.936,123.884 89.856,120.544C90.181,119.481 90.895,118.581 91.856,118.024C101.516,113.704 111.226,109.524 120.936,105.304C121.468,105.035 122.028,104.823 122.606,104.674Z" style="fill:white;fill-rule:nonzero;stroke:white;stroke-width:1px;"/>
                    <path d="M117.266,80.254C116.686,82.844 116.266,85.044 115.626,87.134C115.406,87.814 114.416,88.374 113.626,88.724C107.626,91.434 101.506,94.094 95.436,96.724C92.576,97.974 89.746,99.284 86.836,100.404C86.424,100.558 85.984,100.625 85.545,100.599C85.106,100.573 84.677,100.455 84.286,100.254C77.673,95.7 71.123,91.07 64.636,86.364C64.381,86.105 64.195,85.786 64.096,85.436C63.996,85.087 63.986,84.718 64.066,84.364C65.806,80.664 67.666,77.024 69.616,73.434C69.838,73.129 70.128,72.879 70.463,72.706C70.798,72.532 71.169,72.439 71.546,72.434C77.736,73.434 83.906,74.434 90.076,75.514C96.986,76.664 103.906,77.754 110.816,78.914C112.926,79.314 115.026,79.794 117.266,80.254Z" style="fill:white;fill-rule:nonzero;stroke:white;stroke-width:1px;"/>
                    <path d="M57.926,96.533C61.856,99.253 65.626,101.823 69.356,104.443C73.086,107.063 76.526,109.623 80.176,112.113C81.416,112.963 81.986,113.773 81.536,115.343C80.296,119.693 79.186,124.073 78.036,128.443C77.166,131.703 76.316,134.963 75.436,138.213C75.229,138.651 74.967,139.061 74.656,139.433L64.166,128.173C59.826,123.513 55.436,118.883 51.166,114.173C50.812,113.768 50.556,113.287 50.418,112.766C50.281,112.246 50.267,111.7 50.376,111.173C52.736,106.303 55.316,101.543 57.926,96.533Z" style="fill:white;fill-rule:nonzero;stroke:white;stroke-width:1px;"/>
                    <path d="M203.115,74.12L203.128,74.118L203.14,74.115C204.693,73.807 206.263,73.598 207.841,73.487C208.032,73.506 208.218,73.564 208.386,73.657C208.557,73.75 208.707,73.878 208.826,74.031C210.168,76.414 211.449,78.846 212.727,81.274C213.277,82.318 213.827,83.361 214.38,84.399C214.632,84.887 214.612,85.091 214.585,85.182C214.552,85.298 214.419,85.54 213.851,85.929C209.946,88.602 206.072,91.343 202.203,94.08C199.588,95.93 196.976,97.779 194.358,99.603C194.208,99.682 194.043,99.729 193.874,99.743C193.697,99.757 193.521,99.733 193.354,99.674C187.069,96.983 180.8,94.258 174.528,91.532C171.931,90.403 169.333,89.274 166.734,88.147L166.733,88.147C165.863,87.77 165.256,87.372 164.86,86.886C164.487,86.427 164.238,85.811 164.236,84.857C164.258,84.007 164.074,83.198 163.856,82.422C163.774,82.128 163.689,81.846 163.604,81.563C163.544,81.365 163.484,81.166 163.425,80.962L173.345,79.24L173.347,79.24L203.115,74.12Z" style="fill:none;fill-rule:nonzero;stroke:white;stroke-width:2px;"/>
                    <path d="M204.746,82.994C201.296,85.464 197.906,87.994 194.336,90.334C193.797,90.561 193.217,90.678 192.631,90.678C192.046,90.678 191.466,90.561 190.926,90.334C187.716,89.084 184.606,87.584 180.736,85.854C189.106,84.364 196.806,82.984 204.546,81.854L204.746,82.994Z" style="fill:none;fill-rule:nonzero;stroke:white;stroke-width:1px;"/>
                </g>
            </g>
        </g>
    </g>
</svg>
