<svg width="279" height="429" viewBox="0 0 279 429" fill="none" xmlns="http://www.w3.org/2000/svg">
<path d="M98.9362 240.234C102.526 242.994 105.696 245.564 109.046 247.894C110.155 248.622 111.475 248.957 112.796 248.844C116.566 248.454 120.296 247.684 124.066 247.184C128.625 246.493 132.943 244.686 136.636 241.924C138.336 240.724 140.036 239.924 141.936 241.484C147.156 245.874 153.476 247.164 159.986 247.964C160.48 248.013 160.968 248.103 161.446 248.234C166.196 249.734 170.316 249.044 173.926 245.234C175.696 243.394 177.986 242.054 180.406 240.234C181.216 246.074 181.996 251.454 182.716 256.834C183.596 263.461 184.46 270.094 185.306 276.734C186.486 285.824 187.606 294.924 188.826 304.004C190.146 313.834 191.576 323.634 192.896 333.464C194.056 342.134 195.086 350.834 196.226 359.464C197.016 365.464 197.936 371.404 198.736 377.384C199.476 382.944 200.176 388.514 200.736 394.104C200.712 394.53 200.585 394.944 200.368 395.311C200.15 395.679 199.848 395.988 199.486 396.214C183.686 404.214 167.786 412.024 152.046 420.144C148.156 422.144 144.706 425.064 141.146 427.694C140.016 428.534 139.276 428.634 138.146 427.754C125.666 417.934 110.886 412.254 96.9462 405.064C91.1262 402.064 85.2362 399.184 79.4462 396.124C79.1054 395.835 78.8373 395.47 78.6636 395.059C78.4899 394.647 78.4154 394.2 78.4462 393.754C79.1962 387.364 80.0962 380.984 80.9262 374.594C82.1162 365.344 83.2662 356.084 84.4962 346.834C85.7862 337.094 87.1962 327.364 88.4962 317.614C89.6862 308.694 90.7362 299.754 91.9262 290.834C93.2162 281.174 94.6162 271.534 95.9262 261.834C96.8262 255.214 97.6762 248.574 98.5562 241.944C98.7342 241.387 98.8614 240.815 98.9362 240.234Z" fill="white" stroke="white" stroke-miterlimit="10"/>
<path d="M230.866 427.063C229.246 418.773 227.676 411.063 226.246 403.403C224.576 394.473 223.076 385.523 221.436 376.603C220.176 369.783 218.796 362.993 217.516 356.183C216.326 349.863 215.186 343.533 214.026 337.183V336.683C212.626 329.683 211.156 322.743 209.856 315.753C208.196 306.833 206.706 297.873 205.066 288.953C203.906 282.623 202.616 276.323 201.416 270.003C199.416 259.543 197.456 249.083 195.536 238.623C194.006 230.433 192.406 222.263 190.986 214.053C190.901 213.092 190.508 212.185 189.867 211.464C189.226 210.744 188.37 210.249 187.426 210.053C180.566 208.053 173.746 205.843 166.936 203.653C158.416 200.903 149.936 197.773 141.346 195.483C138.816 194.813 135.606 196.203 132.836 197.063C119.106 201.353 105.416 205.793 91.6957 210.143C90.8636 210.31 90.106 210.737 89.5326 211.362C88.9591 211.988 88.5995 212.779 88.5057 213.623C86.7457 223.773 84.8457 233.913 82.9457 244.043C81.6657 250.853 80.2557 257.643 78.9457 264.453C77.2457 273.533 75.6557 282.633 73.9457 291.713C72.6457 298.713 71.2057 305.633 69.9457 312.603C67.7857 324.203 65.7157 335.813 63.5457 347.403C62.2657 354.293 60.8257 361.163 59.5457 368.053C57.8657 376.963 56.2857 385.893 54.6257 394.813C53.3357 401.703 51.9957 408.593 50.6257 415.483C49.9157 419.193 49.2257 422.903 48.4157 427.193C46.8857 425.563 45.5257 424.313 44.4157 422.893C38.5424 415.493 32.7357 408.056 26.9957 400.583C26.5014 399.857 26.3078 398.968 26.4557 398.103C27.7157 392.303 29.1557 386.543 30.4557 380.743C32.1457 373.013 33.6857 365.253 35.3557 357.513C36.5957 351.793 37.9757 346.103 39.2257 340.383C41.4257 330.383 43.5557 320.253 45.7657 310.193C47.0357 304.393 48.4257 298.623 49.7057 292.823C51.4157 285.013 53.0257 277.183 54.7057 269.383C55.9957 263.503 57.4057 257.653 58.7057 251.773C60.8857 241.773 62.9857 231.773 65.1557 221.773C66.5857 215.173 67.9657 208.553 69.6657 202.023C70.0257 200.643 71.5857 199.483 72.7657 198.403C85.8657 186.503 98.9757 174.62 112.096 162.753C112.566 162.323 113.096 161.963 113.756 161.463C119.816 166.983 125.626 172.643 131.836 177.813C135.836 181.123 136.316 185.813 138.026 190.043C138.506 191.223 138.826 192.463 139.226 193.673H139.916C140.786 191.627 141.508 189.522 142.076 187.373C143.076 182.373 146.076 178.823 149.846 175.603C154.666 171.543 159.206 167.153 163.846 162.833C165.056 161.693 165.846 161.463 167.276 162.723C180.809 175.103 194.382 187.436 207.996 199.723C210.366 201.863 210.276 204.913 210.996 207.603C212.476 213.433 213.536 219.363 214.806 225.233L220.806 252.523C223.606 265.403 226.346 278.303 229.186 291.183C230.986 299.313 232.936 307.403 234.786 315.523C235.246 317.523 234.786 319.953 236.876 320.903C236.628 322.204 236.544 323.531 236.626 324.853C239.256 337.013 241.996 349.153 244.696 361.293L252.696 397.293C252.885 398.04 252.883 398.822 252.691 399.568C252.498 400.314 252.122 401 251.596 401.563C245.416 409.213 239.406 417.003 233.306 424.713C232.544 425.548 231.729 426.333 230.866 427.063V427.063Z" fill="white" stroke="white" stroke-miterlimit="10"/>
<path d="M1.76623 149.384C1.63623 147.844 1.49624 146.984 1.49624 146.124C1.49624 132.064 1.35625 117.994 1.62625 103.934C1.62625 101.634 3.17623 99.1839 4.48623 97.1039C13.6662 82.5439 22.9762 68.1039 32.2362 53.5639C32.4361 53.2996 32.6008 53.0105 32.7263 52.7039C34.3663 48.3239 38.3462 47.3939 42.1862 46.2439C45.5762 45.2439 48.9862 44.2439 52.3362 43.1839C52.9362 42.9839 53.3362 42.1039 53.7962 41.5439C53.0962 41.0939 52.3563 40.1939 51.7263 40.2639C47.8063 40.7439 43.9162 41.4439 39.5962 42.1339C41.3662 39.3239 43.0562 36.6239 44.7462 33.9239C49.1529 26.9239 53.5562 19.9239 57.9562 12.9239C58.3776 12.1916 58.9657 11.569 59.6729 11.1068C60.3801 10.6446 61.1864 10.3558 62.0262 10.2639C68.3762 9.26387 74.6262 7.66387 81.0262 6.66387C90.2362 5.21387 99.4662 3.66386 108.736 2.88386C120.006 1.88386 131.326 1.12387 142.636 1.00387C156.038 0.926485 169.422 2.01054 182.636 4.24387C194.636 6.24387 206.526 8.36387 218.446 10.5139C219.38 10.7299 220.202 11.2815 220.756 12.0639C226.936 21.8039 233.11 31.5672 239.276 41.3539C239.366 41.6418 239.406 41.9426 239.396 42.2439C234.396 40.9639 229.506 39.7139 224.606 38.4439C219.276 37.0639 213.996 35.4439 208.606 34.3339C200.846 32.7439 193.036 31.3339 185.206 30.1939C164.696 27.1939 144.086 25.6639 123.386 27.2639C110.96 28.2639 98.5662 29.6405 86.2062 31.3939C78.2062 32.5139 70.3762 34.5739 62.4862 36.3139C61.3177 36.7018 60.2274 37.2943 59.2662 38.0639C57.9062 38.9839 56.7362 40.2039 54.8962 38.8539C54.4262 38.5039 53.4862 38.8039 52.6562 38.8039C53.5362 40.0139 54.3062 41.0839 55.3462 42.5039L72.2563 38.5039L1.76623 149.384Z" fill="white" stroke="white" stroke-miterlimit="10"/>
<path d="M41.8059 130.924C42.6059 132.774 43.3759 134.354 43.9659 135.994C48.5359 148.584 53.0459 161.194 57.6059 173.784C58.9459 177.484 60.4559 181.114 61.8259 184.784C63.3459 188.894 61.1159 192.554 60.1459 196.294C57.9859 204.654 55.4859 212.924 53.0959 221.224C51.4759 226.844 49.7859 232.434 48.1759 238.054C44.3359 251.504 40.5459 264.974 36.6959 278.424C35.0659 284.124 33.3159 289.784 31.6959 295.424C28.8559 305.424 26.0959 315.424 23.2559 325.364C21.7259 330.744 20.0159 336.074 18.5659 341.474C16.9559 347.474 15.8059 353.474 13.9759 359.374C12.9759 362.634 10.9759 365.584 9.41589 368.674L8.41589 368.484C6.95589 363.724 5.4992 358.964 4.04587 354.204C3.63456 352.358 3.08296 350.546 2.39587 348.784C0.845871 345.574 0.975876 342.224 1.02588 338.834C1.32588 320.964 1.49588 303.084 2.02588 285.224C2.10588 282.464 3.45588 279.694 4.46588 277.034C8.66588 265.964 12.9959 254.954 17.2259 243.904C22.7192 229.564 28.1825 215.204 33.6159 200.824C36.0759 194.374 38.6159 187.954 40.8859 181.434C41.2559 179.751 41.2559 178.007 40.8859 176.324C39.5959 165.994 38.3459 155.654 36.8059 145.324C36.1459 140.874 38.7059 137.664 40.2259 134.014C40.6159 133.114 41.1459 132.214 41.8059 130.924Z" fill="white" stroke="white" stroke-miterlimit="10"/>
<path d="M270.606 368.665C266.726 364.875 266.136 360.075 264.786 355.665C262.856 349.375 261.156 343.015 259.356 336.665C256.656 327.085 253.946 317.505 251.226 307.925C249.576 302.155 247.846 296.405 246.226 290.635C242.906 279.005 239.626 267.355 236.286 255.735C233.936 247.585 231.466 239.465 229.126 231.315C226.306 221.515 223.576 211.685 220.786 201.865C219.616 197.755 217.906 193.725 217.336 189.525C216.986 186.965 218.046 184.075 218.946 181.525C223.246 169.285 227.716 157.095 232.126 144.885C233.646 140.725 235.169 136.558 236.696 132.385C236.939 131.915 237.227 131.469 237.556 131.055C239.086 134.145 240.956 136.925 241.836 139.985C242.457 142.606 242.555 145.325 242.126 147.985C240.906 158.315 239.346 168.615 238.126 178.985C237.926 180.795 238.856 182.815 239.546 184.635C243.746 195.695 248.076 206.705 252.276 217.755C257.016 230.195 261.656 242.665 266.356 255.115C269.836 264.335 273.356 273.545 276.826 282.775C277.166 283.694 277.346 284.665 277.356 285.645C277.666 304.585 278.006 323.535 278.156 342.485C277.995 344.934 277.477 347.346 276.616 349.645C274.726 355.925 272.676 362.135 270.606 368.665Z" fill="white" stroke="white" stroke-miterlimit="10"/>
<path d="M207.896 38.6133C213.316 39.9533 218.766 41.2233 224.156 42.6733C230.036 44.2533 235.896 45.9033 241.676 47.7633C243.108 48.296 244.327 49.2829 245.146 50.5733C254.046 64.3633 262.766 78.2333 271.556 92.0633C273.176 94.6233 275.006 97.0633 276.416 99.7333C277.274 101.375 277.766 103.183 277.856 105.033C278.136 112.193 278.236 119.353 278.296 126.513C278.366 133.873 278.296 141.243 278.296 148.613L277.026 148.923L207.456 39.0633L207.896 38.6133Z" fill="white" stroke="white" stroke-miterlimit="10"/>
<path d="M221.676 96.5332C224.306 101.743 226.866 106.663 229.216 111.683C229.496 112.283 228.846 113.683 228.216 114.293C218.106 125.223 208.026 136.143 197.716 146.923C196.016 148.713 195.966 150.373 196.466 152.503C197.896 158.583 199.216 164.683 200.576 170.773L199.856 171.403C198.396 169.693 197.016 167.883 195.446 166.273C185.766 156.373 176.156 146.393 166.256 136.723C163.256 133.803 163.056 130.143 162.096 126.723C160.436 120.783 159.176 114.723 157.786 108.723C157.506 107.553 157.376 106.353 157.096 104.723C161.006 106.423 164.506 107.943 167.996 109.483C174.906 112.483 181.796 115.583 188.736 118.483C189.111 118.553 189.496 118.542 189.866 118.453C190.237 118.363 190.584 118.196 190.886 117.963C200.706 111.13 210.502 104.267 220.276 97.3732C220.723 97.0617 221.191 96.7811 221.676 96.5332V96.5332Z" fill="white" stroke="white" stroke-miterlimit="10"/>
<path d="M164.486 157.323C161.649 155.412 158.912 153.356 156.286 151.163C153.436 148.553 150.506 147.163 146.866 149.043C141.156 152.043 135.666 150.423 130.206 148.453C129.366 148.115 128.445 148.029 127.557 148.207C126.669 148.384 125.851 148.818 125.206 149.453C121.746 152.193 118.206 154.793 114.206 157.833C114.356 156.603 114.386 155.833 114.546 155.143C117.376 142.513 120.256 129.903 123.066 117.263C124.656 110.113 126.126 102.933 127.696 95.7732C127.884 95.1442 128.228 94.5731 128.696 94.1132C131.906 90.7232 135.106 87.3132 138.436 84.0432C138.802 83.8419 139.213 83.7363 139.631 83.7363C140.049 83.7363 140.46 83.8419 140.826 84.0432C144.332 87.2303 147.607 90.6622 150.626 94.3132C152.066 96.1932 152.336 99.0432 152.896 101.503C154.276 107.503 155.526 113.583 156.826 119.623C158.556 127.683 160.276 135.743 162.046 143.783C162.786 147.163 163.646 150.523 164.426 153.893C164.666 154.893 164.826 155.963 165.026 157.003L164.486 157.323Z" fill="white"/>
<path d="M251.946 117.453C253.099 119.133 254.253 120.8 255.406 122.453C258.216 126.553 261.156 130.573 263.816 134.773C266.226 138.553 268.296 142.563 270.606 146.403C272.716 149.923 275.006 153.323 277.116 156.843C277.604 157.683 277.869 158.633 277.886 159.603C277.933 183.443 277.933 207.276 277.886 231.103C277.854 231.379 277.79 231.651 277.696 231.913C277.346 231.773 276.896 231.723 276.806 231.523C272.736 222.463 268.716 213.383 264.636 204.323C260.936 196.083 257.189 187.856 253.396 179.643C252.042 176.934 251.32 173.952 251.286 170.923C251.426 153.793 251.356 136.663 251.356 119.533V117.663L251.946 117.453Z" fill="white" stroke="white" stroke-miterlimit="10"/>
<path d="M27.7962 117.293V119.793C27.7962 135.793 27.5862 151.903 27.9162 167.943C28.0262 173.543 26.4962 178.363 24.2062 183.273C19.2862 193.833 14.6462 204.523 9.84622 215.153C7.32622 220.723 4.72621 226.273 1.70621 231.813C1.62621 230.963 1.49622 230.113 1.49622 229.263C1.49622 206.183 1.4162 183.103 1.6062 160.023C1.6062 157.863 2.97623 155.543 4.19623 153.593C11.5662 141.763 19.0462 130.063 26.5462 118.273C26.9265 117.902 27.3456 117.574 27.7962 117.293Z" fill="white" stroke="white" stroke-miterlimit="10"/>
<path d="M122.606 104.674C120.896 111.784 119.326 118.324 117.766 124.874C117.298 126.454 116.924 128.06 116.646 129.684C116.216 133.264 114.146 135.684 111.706 138.184C100.986 148.934 90.3758 159.784 79.2158 170.484C79.5558 168.484 79.8158 166.484 80.2158 164.484C82.6292 153.204 85.0625 141.931 87.5158 130.664C88.2558 127.284 88.9358 123.884 89.8558 120.544C90.1805 119.481 90.8949 118.581 91.8558 118.024C101.516 113.704 111.226 109.524 120.936 105.304C121.468 105.035 122.028 104.823 122.606 104.674V104.674Z" fill="white" stroke="white" stroke-miterlimit="10"/>
<path d="M117.266 80.2536C116.686 82.8436 116.266 85.0436 115.626 87.1336C115.406 87.8136 114.416 88.3736 113.626 88.7236C107.626 91.4336 101.506 94.0936 95.436 96.7236C92.576 97.9736 89.746 99.2836 86.836 100.404C86.424 100.558 85.9843 100.625 85.5451 100.599C85.1059 100.573 84.677 100.455 84.286 100.254C77.6727 95.7003 71.1226 91.0703 64.636 86.3636C64.3811 86.1046 64.1954 85.7858 64.0958 85.4363C63.9962 85.0869 63.986 84.718 64.066 84.3636C65.806 80.6636 67.666 77.0236 69.616 73.4336C69.838 73.1285 70.1279 72.8793 70.4629 72.7058C70.7979 72.5322 71.1687 72.439 71.546 72.4336C77.736 73.4336 83.906 74.4336 90.076 75.5136C96.986 76.6636 103.906 77.7536 110.816 78.9136C112.926 79.3136 115.026 79.7936 117.266 80.2536Z" fill="white" stroke="white" stroke-miterlimit="10"/>
<path d="M57.9262 96.5332C61.8562 99.2532 65.6262 101.823 69.3562 104.443C73.0862 107.063 76.5262 109.623 80.1762 112.113C81.4162 112.963 81.9862 113.773 81.5362 115.343C80.2962 119.693 79.1862 124.073 78.0362 128.443C77.1662 131.703 76.3162 134.963 75.4362 138.213C75.2287 138.651 74.9666 139.061 74.6562 139.433L64.1662 128.173C59.8262 123.513 55.4362 118.883 51.1662 114.173C50.8115 113.768 50.5555 113.287 50.4184 112.766C50.2814 112.246 50.2669 111.7 50.3762 111.173C52.7362 106.303 55.3162 101.543 57.9262 96.5332Z" fill="white" stroke="white" stroke-miterlimit="10"/>
<path d="M203.115 74.1199L203.128 74.1177L203.14 74.1153C204.693 73.8073 206.263 73.5975 207.841 73.4871C208.032 73.5063 208.218 73.5639 208.386 73.6566C208.557 73.7504 208.707 73.878 208.826 74.0315C210.168 76.4138 211.449 78.8464 212.727 81.2736C213.277 82.3179 213.827 83.3611 214.38 84.399C214.632 84.8872 214.612 85.0913 214.585 85.1824C214.552 85.2975 214.419 85.5402 213.851 85.9294C209.946 88.6016 206.072 91.3429 202.203 94.0801C199.588 95.9304 196.976 97.7789 194.358 99.6029C194.208 99.6816 194.043 99.7292 193.874 99.7426C193.697 99.7565 193.521 99.7332 193.354 99.6743C187.069 96.9834 180.8 94.2583 174.528 91.5323C171.931 90.4032 169.333 89.274 166.734 88.1469L166.733 88.1468C165.863 87.7698 165.256 87.3715 164.86 86.8856C164.487 86.4271 164.238 85.811 164.236 84.8573C164.258 84.007 164.074 83.1982 163.856 82.4218C163.774 82.1279 163.689 81.846 163.604 81.5626C163.544 81.3647 163.484 81.1662 163.425 80.9624L173.345 79.2399L173.347 79.2396L203.115 74.1199Z" stroke="white" stroke-width="2" stroke-miterlimit="10"/>
<path d="M204.746 82.9935C201.296 85.4635 197.906 87.9935 194.336 90.3335C193.797 90.561 193.217 90.6781 192.631 90.6781C192.046 90.6781 191.466 90.561 190.926 90.3335C187.716 89.0835 184.606 87.5835 180.736 85.8535C189.106 84.3635 196.806 82.9835 204.546 81.8535L204.746 82.9935Z" stroke="white" stroke-miterlimit="10"/>
</svg>
